<svg width="219" height="219" viewBox="0 0 219 219" fill="none" xmlns="http://www.w3.org/2000/svg">
<g filter="url(#filter0_bd_251_26)">
<circle cx="103.091" cy="99.7822" r="39.0913" fill="white"/>
<path d="M101.169 105.961C101.169 104.646 101.384 103.489 101.813 102.492C102.241 101.495 102.792 100.607 103.473 99.824C104.15 99.0406 104.873 98.3117 105.642 97.6373C106.411 96.9628 107.13 96.3051 107.811 95.6642C108.488 95.0233 109.043 94.3488 109.471 93.6367C109.9 92.9245 110.115 92.1244 110.115 91.2363C110.115 89.7408 109.509 88.5343 108.294 87.6085C107.08 86.6827 105.457 86.2219 103.423 86.2219C101.388 86.2219 99.7529 86.578 98.3111 87.2902C96.8651 88.0023 95.6629 89.0161 94.696 90.3315L89.5005 86.9718C91.0011 84.9443 92.9642 83.3524 95.3896 82.1962C97.8151 81.04 100.69 80.4619 104.011 80.4619C106.617 80.4619 108.9 80.8431 110.863 81.6097C112.826 82.3763 114.36 83.4781 115.466 84.9191C116.571 86.3602 117.126 88.1112 117.126 90.1765C117.126 91.6008 116.903 92.8449 116.458 93.9131C116.012 94.9814 115.44 95.9155 114.743 96.7157C114.045 97.5158 113.305 98.2614 112.519 98.9568C111.733 99.6522 110.993 100.335 110.295 101.009C109.598 101.684 109.038 102.417 108.61 103.196C108.181 103.98 107.967 104.905 107.967 105.969H101.165L101.169 105.961ZM104.595 118.713C103.347 118.713 102.321 118.302 101.518 117.485C100.715 116.668 100.312 115.688 100.312 114.549C100.312 113.409 100.715 112.442 101.518 111.641C102.321 110.841 103.347 110.439 104.595 110.439C105.844 110.439 106.861 110.841 107.647 111.641C108.433 112.442 108.824 113.413 108.824 114.549C108.824 115.684 108.429 116.664 107.647 117.485C106.861 118.302 105.844 118.713 104.595 118.713Z" fill="#555555"/>
<path d="M75.2209 105.962C74.8314 104.043 74.6252 102.05 74.6252 100.014C74.6252 83.9323 87.3593 70.8989 103.072 70.8989C106.92 70.8989 110.59 71.6805 113.939 73.0992" stroke="#555555" stroke-width="4" stroke-miterlimit="10"/>
<path d="M131.392 94.2744C131.791 96.1351 132.001 98.0678 132.001 100.042C132.001 115.637 118.979 128.275 102.91 128.275C101.969 128.275 101.039 128.233 100.126 128.146" stroke="#555555" stroke-width="4" stroke-miterlimit="10"/>
</g>
<defs>
<filter id="filter0_bd_251_26" x="0" y="0.690918" width="218.183" height="218.183" filterUnits="userSpaceOnUse" color-interpolation-filters="sRGB">
<feFlood flood-opacity="0" result="BackgroundImageFix"/>
<feGaussianBlur in="BackgroundImageFix" stdDeviation="28.95"/>
<feComposite in2="SourceAlpha" operator="in" result="effect1_backgroundBlur_251_26"/>
<feColorMatrix in="SourceAlpha" type="matrix" values="0 0 0 0 0 0 0 0 0 0 0 0 0 0 0 0 0 0 127 0" result="hardAlpha"/>
<feOffset dx="6" dy="10"/>
<feGaussianBlur stdDeviation="35"/>
<feComposite in2="hardAlpha" operator="out"/>
<feColorMatrix type="matrix" values="0 0 0 0 0.558333 0 0 0 0 0.469 0 0 0 0 0 0 0 0 0.1 0"/>
<feBlend mode="normal" in2="effect1_backgroundBlur_251_26" result="effect2_dropShadow_251_26"/>
<feBlend mode="normal" in="SourceGraphic" in2="effect2_dropShadow_251_26" result="shape"/>
</filter>
</defs>
</svg>
