<svg width="21" height="24" viewBox="0 0 21 24" fill="none" xmlns="http://www.w3.org/2000/svg">
<path d="M10.5 22.8968C15.4706 22.8968 19.5 18.8595 19.5 13.8793C19.5 8.899 15.4706 4.86169 10.5 4.86169C5.52944 4.86169 1.5 8.899 1.5 13.8793C1.5 18.8595 5.52944 22.8968 10.5 22.8968Z" stroke="black" stroke-width="1.5" stroke-miterlimit="10"/>
<path d="M13.8102 1.10522H7.16706C6.38606 1.10522 5.75293 1.73959 5.75293 2.52211C5.75293 3.30464 6.38606 3.939 7.16706 3.939H13.8102C14.5912 3.939 15.2243 3.30464 15.2243 2.52211C15.2243 1.73959 14.5912 1.10522 13.8102 1.10522Z" stroke="black" stroke-width="1.5" stroke-miterlimit="10"/>
<path d="M10.4893 7.19019C14.1702 7.19019 17.1543 10.1802 17.1543 13.8682C17.1543 17.5563 14.1702 20.5463 10.4893 20.5463C6.80836 20.5463 3.82422 17.5563 3.82422 13.8682" stroke="black" stroke-width="1.5" stroke-miterlimit="10"/>
<path d="M5.31396 13.8683H10.4892V8.57812" stroke="black" stroke-width="1.5" stroke-miterlimit="10"/>
</svg>
