<svg width="38" height="29" viewBox="0 0 38 29" fill="none" xmlns="http://www.w3.org/2000/svg">
<path d="M2.75531 0.378327C2.75775 0.382207 2.76079 0.386979 2.76385 0.390391L15.6152 14.732C16.352 15.5487 17.4025 16.011 18.4999 16.011C19.5974 16.011 20.6635 15.5487 21.3847 14.732L34.0368 0.631811C34.1647 0.488104 34.153 0.252953 33.9692 0.196114C33.5531 0.06745 33.1094 0 32.6571 0H4.37408C3.80755 0 3.26937 0.111479 2.77303 0.294683C2.73706 0.307961 2.7349 0.345865 2.75531 0.378327Z" fill="#F9CB40"/>
<path d="M36.5806 2.44334C36.4881 2.25501 36.2302 2.2779 36.0907 2.43463L23.4542 16.5194C22.2 17.9217 20.397 18.723 18.5 18.723C16.603 18.723 14.8 17.9217 13.5458 16.5194L0.691433 2.17444C0.690365 2.17325 0.690736 2.17384 0.689766 2.17257C0.660853 2.13461 0.595302 2.13306 0.571582 2.17446C0.213061 2.8003 0 3.52185 0 4.29924V23.7159C0 26.089 1.95975 28.0153 4.37415 28.0153H32.6415C35.0559 28.0153 37.0157 26.089 37.0157 23.7159V4.29924C37.0157 3.63862 36.8576 3.00714 36.5806 2.44334Z" fill="white"/>
</svg>
