<svg width="18" height="26" viewBox="0 0 18 26" fill="none" xmlns="http://www.w3.org/2000/svg">
<g clip-path="url(#clip0_644_3864)">
<path d="M3.63357 4.14062H15.0717C16.5189 4.14062 17.308 5.51431 16.3791 6.41563L11.0622 11.5762C10.5324 12.0906 10.5324 12.8406 11.0622 13.3551L16.4073 18.5419C17.3362 19.4446 16.5472 20.8169 15.0999 20.8169H3.66051C2.23764 20.8169 1.44089 19.484 2.31976 18.5748L7.37742 13.3498C7.86368 12.8472 7.86368 12.1393 7.37742 11.6367L2.29281 6.38273C1.41266 5.47352 2.20942 4.14062 3.63357 4.14062Z" fill="#F9CB40"/>
<path d="M2.35047 0.0283203H16.3995C17.2144 0.0283203 17.875 0.705784 17.875 1.54148C17.875 2.37717 17.2144 3.05464 16.3995 3.05464H2.35047C1.53559 3.05464 0.875 2.37717 0.875 1.54148C0.875 0.705784 1.53559 0.0283203 2.35047 0.0283203Z" fill="#F9CB40"/>
<path d="M2.35047 22.002H16.3995C17.2144 22.002 17.875 22.6794 17.875 23.5151C17.875 24.3508 17.2144 25.0283 16.3995 25.0283H2.35047C1.53559 25.0283 0.875 24.3508 0.875 23.5151C0.875 22.6794 1.53559 22.002 2.35047 22.002Z" fill="#F9CB40"/>
</g>
<defs>
<clipPath id="clip0_644_3864">
<rect width="17" height="25" fill="white" transform="matrix(-1 0 0 1 17.875 0.0283203)"/>
</clipPath>
</defs>
</svg>
