<svg width="932" height="932" viewBox="0 0 932 932" fill="none" xmlns="http://www.w3.org/2000/svg">
<g clip-path="url(#clip0_431_252)">
<path d="M829.63 183.28C816.74 170.74 801.51 162.73 783.4 162.17C745.84 161.01 709.29 166.5 674.3 180.74C656.14 188.13 639.28 197.79 623.15 210.38C634 212.28 639.96 217.38 640.99 227.55C642.47 242.28 643.86 257.16 643.4 271.92C641.81 323.3 639.91 374.67 637.11 425.99C635.47 456.07 631.94 486.05 629.18 516.07C627.82 530.82 621.72 543 609.29 551.62C609.11 551.74 609.15 552.18 609.05 552.66C612.35 552.44 615.61 552.33 618.84 552C636.36 550.25 654.07 549.9 671 543.98C701.38 533.35 729.53 518.25 756.98 501.68C788.9 482.41 814.56 457.17 833.05 424.47C848.59 396.98 853.16 367.86 848.06 337.22C843.93 312.42 829.95 293.33 809.97 278.59C802.98 273.44 795.4 269.09 787.19 263.8C807.43 249.03 828.64 236.87 853.26 228.68C852.75 226.65 852.56 223.28 851.11 220.57C845.01 209.14 838.56 197.9 832.19 186.62C831.51 185.41 830.64 184.24 829.65 183.28H829.63ZM794.36 227.64C778.16 245.01 758.57 258.26 739.45 272.07C733.88 276.09 728.51 280.38 723.06 284.56C721.22 285.97 719.43 287.45 716.84 289.53C720.76 291.11 723.29 292.13 725.82 293.15C751.64 303.6 774.71 318.14 793.45 339.02C805.72 352.7 814.48 368.15 816.01 386.86C817.05 399.5 815.57 411.63 808.86 422.95C794.37 447.37 777.58 469.69 753.81 485.91C739.24 495.85 722.92 502.17 706.43 508.02C696.02 511.71 685.51 515.12 673.17 519.29C673.85 509.81 674.16 501.62 675.08 493.49C680.14 448.67 686.3 403.94 690.21 359.02C693.34 323.11 694.07 286.97 695.34 250.91C696.13 228.46 704.48 210.59 724.24 199.09C740.49 189.63 758.16 187.98 776.37 191.26C785.86 192.97 792.08 199.31 796.53 207.41C804.28 221.5 804.89 216.36 794.36 227.65V227.64Z" fill="#FBB040"/>
<path d="M289.76 503.19C296.24 485.51 300.81 467.1 305.73 448.87C322.29 387.46 337.91 325.91 337.87 261.59C337.87 248.87 340.14 236.13 341.68 223.44C342.48 216.83 346.97 213.49 353.32 212.4C354.85 212.14 356.37 211.81 358.5 211.39C352.42 203.81 347.1 196.91 338.22 193.02C327.26 188.21 317.29 181.13 306.35 176.28C283.91 166.32 260.04 163.39 235.62 162.27C179.54 159.68 129.41 176.02 83.66 207.58C82.34 208.49 81.12 209.56 79 211.24C87.86 211.8 94.39 214.86 99.55 220.42C101.02 222 102.2 224.36 102.46 226.49C104 239.52 105.15 252.59 106.59 265.63C109.72 293.97 114.38 322.01 126.59 348.08C136.18 368.57 146.34 388.81 156.8 408.87C176.18 446.02 200.87 479.59 227.31 511.95C238.38 525.5 249.1 539.33 260.17 552.88C263.65 557.15 265.33 557.06 267.63 552.21C275.3 536 283.61 519.99 289.77 503.2L289.76 503.19ZM260.27 523.82C257.98 528.38 255.66 528.63 252.48 524.48C243.46 512.72 234.2 501.05 226.22 488.59C204.08 454.05 184.73 418.04 172.86 378.52C160.77 338.26 155.08 297.04 157.33 255.02C157.97 243.14 160.95 231.3 163.66 219.63C167.81 201.78 180.65 191.79 196.89 185.64C206.64 181.94 216.94 180.88 227.35 181.9C244.23 183.56 256.34 192.61 264.91 206.8C274.12 222.05 279.17 238.94 280.78 256.39C283.56 286.54 284.94 316.82 286.9 347.05C286.49 347.07 286.07 347.1 285.66 347.12C286.37 381.22 285.77 415.28 280.94 449.1C278.63 465.31 276.04 481.56 272.04 497.41C269.72 506.62 264.6 515.19 260.27 523.82Z" fill="#FBB040"/>
<path d="M452.93 307.3C484.67 318.94 513.52 335.14 537.17 359.95C554.43 378.06 567.91 397.99 572.98 422.95C577.73 446.34 574.88 469.28 569.31 492.06C560.5 528.11 546.52 562.37 532.89 596.75C531.2 601.02 529.49 605.28 527.79 609.54C528.85 609.21 529.42 608.68 529.87 608.06C551.98 577.81 571.34 545.91 584.62 510.78C599.29 472.01 610.23 432.75 602.84 390.2C598.46 364.94 592.12 341.08 575.66 320.97C555.11 295.87 529.84 276.3 501.75 260.48C483.13 249.99 463.81 240.76 444.96 230.67C438.01 226.95 431.53 222.37 424.48 217.97C425.7 216.65 426.24 215.89 426.95 215.33C429.77 213.11 432.52 210.77 435.52 208.81C455.04 196.09 476.97 192.96 499.62 193.26C518.16 193.5 535.91 197.27 552.03 206.91C562.06 212.91 569.36 221.13 572.34 232.71C572.78 234.44 573.11 236.2 573.68 238.86C586.59 219.48 598.94 200.92 611.95 181.39C601.1 177.69 591.19 173.94 581.07 170.92C551.65 162.16 521.8 158.91 492.04 168.46C437.92 185.84 397.97 219.58 375.18 272.4C373.13 277.16 373.96 278.98 378.89 280.75C403.57 289.58 428.31 298.26 452.91 307.28L452.93 307.3Z" fill="#FBB040"/>
<path d="M611.87 735.75C612.2 709.67 612.4 683.58 613.05 657.51C613.19 651.78 614.98 646.09 616.04 640.25C598.95 641.58 580.92 642.98 562.13 644.43C569.05 649.59 569.45 650.97 566.68 658.39C565.15 662.48 563.83 666.68 561.95 670.6C553.74 687.69 552.31 705.58 554.93 724.09C556.96 738.42 564.93 748.74 576.61 756.76C576.22 755.99 575.93 755.15 575.43 754.47C564.43 739.42 561.55 722.58 565.12 704.63C568.28 688.75 573.44 673.49 583.66 660.63C586.54 657.01 591.02 654.6 594.99 651.96C596.93 650.67 598.73 651.53 598.88 654.09C599.25 660.16 599.65 666.23 599.69 672.31C599.71 675.57 597.84 677.39 594.29 677.3C589.18 677.18 584.07 677.27 578.64 677.27C577.43 680.68 576.3 683.89 575.35 686.57C583.56 685.63 591.21 684.75 600.08 683.74C599.14 703.63 598.38 722.45 597.19 741.24C597.02 743.97 594.73 746.57 593.37 749.32C600.46 748.69 608.05 748.02 616.61 747.27C611.39 744.26 611.81 739.92 611.86 735.76L611.87 735.75Z" fill="#FBB040"/>
<path d="M756.72 620.88C739.84 623.66 721.81 626.62 703.24 629.68C710.01 635.4 710.28 636.25 707.49 644.55C705.5 650.46 703.5 656.39 701.19 662.18C695.07 677.49 693.73 693.26 695.57 709.55C697.13 723.34 703.98 732.9 716.75 738.45C710.04 731.2 705.69 722.68 705.22 712.9C704.85 705.18 705.28 697.23 706.81 689.67C710.02 673.85 715.25 658.64 724.48 645.14C727.87 640.19 732 636.03 739 634.2C740.33 642.84 741.57 651.1 739.59 659.4C739.27 660.75 736.76 662.19 735.07 662.49C730.94 663.22 726.67 663.13 722.5 663.73C721.15 663.92 719.38 664.93 718.81 666.07C717.54 668.63 716.9 671.51 716.23 673.56C724.16 672.04 731.88 670.56 739.09 669.17C739.09 684.97 739.25 700.09 739 715.2C738.91 720.49 738.96 726.14 732.95 730.81C741.43 729.19 748.45 727.85 754.4 726.71C753.74 723.67 752.58 720.88 752.6 718.1C752.8 691.7 753.02 665.29 753.67 638.89C753.82 632.83 755.66 626.81 756.71 620.89L756.72 620.88Z" fill="#FBB040"/>
<path d="M351.34 647.23C347.55 656.95 343.13 666.41 338.87 675.94C338.24 677.36 337.14 678.58 335.65 680.79C328.3 664.44 321.44 649.18 314.37 633.44C308.15 637.74 302.35 641.75 295.77 646.3C302.3 647.61 303.64 648.89 304.61 654.07C304.98 656.05 305.24 658.1 305.22 660.11C305 683.85 304.81 707.59 304.34 731.33C304.28 734.48 302.65 737.6 301.72 740.85C305.11 741.29 309.29 741.83 313.47 742.38C309.23 739.15 309.46 734.69 309.52 730.53C309.84 709.14 310.32 687.75 310.79 666.36C310.81 665.59 311.18 664.83 311.54 663.53C318.06 676.64 324.26 689.13 330.96 702.59C338.18 690.27 344.76 679.03 351.34 667.79C351.66 667.86 351.98 667.93 352.3 668C352.59 670.71 353.17 673.42 353.12 676.13C352.75 695.96 352.24 715.79 351.81 735.62C351.72 739.81 351.3 743.78 346.9 746.6C354.49 747.33 362.08 748.06 368.53 748.68C367.68 745.32 366.06 741.86 366.05 738.41C366.03 712.64 366.22 686.87 366.62 661.1C366.72 654.9 366.47 648.3 372.82 643.35C367.54 642.92 363.13 642.93 358.89 642.12C354.28 641.24 352.87 643.34 351.34 647.25V647.23Z" fill="#FBB040"/>
<path d="M663.48 676.94C672.29 670.47 679.95 664.84 688.48 658.57C686.69 653.72 684.79 647.45 682.05 641.56C679.87 636.88 675.95 633.71 670.47 633.05C652.32 630.88 631.2 641.75 622.37 657.95C626.92 659.24 628.04 662.43 628.01 666.89C627.87 688.61 628.12 710.34 627.87 732.06C627.81 736.84 626.25 741.6 625.37 746.45C631.04 745.77 637.73 744.96 643.63 744.25C642.61 741.69 641.43 739.51 640.92 737.19C640.43 734.93 640.52 732.52 640.56 730.19C640.84 711.91 640.9 693.62 641.61 675.35C641.87 668.56 643.3 661.74 644.93 655.12C646.38 649.19 650.43 645.17 656.46 643.21C667.11 639.74 671.7 648.31 671.61 657.13C671.56 662.38 668.65 665.59 664.91 668.78C659.4 673.47 654.32 678.68 648.65 684.05C657.65 687.47 665.27 692.43 671.58 698.64C683.76 710.64 685.17 723.03 675.94 737.39C674.15 740.17 672.2 742.85 670.33 745.57C682.15 737.86 691.36 727.69 690.27 713.24C689.04 697.05 683.34 682.34 663.49 676.95L663.48 676.94Z" fill="#FBB040"/>
<path d="M474.56 664.42C479.62 667.54 479.77 667.64 480.23 673.62C480.8 680.93 480.8 688.31 481.79 695.56C484.7 717 490.06 737.46 506.05 753.54C509.23 756.74 511.14 756.61 514.44 753.79C526.91 743.12 533.55 729.06 538.84 714.02C543.75 700.05 543.05 685.42 544.46 671.03C544.76 667.98 546.47 665.08 547.87 661.17C532.66 638.38 496.86 637.49 474.56 664.41V664.42ZM525.72 726.77C522.84 738.59 517.96 746.1 509.7 751.38C507.37 747.88 504.85 744.72 503 741.2C497.97 731.65 495.36 721.29 495.34 710.57C495.31 696.4 495.83 682.22 496.79 668.09C497.03 664.51 499.23 660.61 501.59 657.72C507.9 649.98 518.01 650.78 522.37 659.67C525.2 665.44 527.16 671.97 527.9 678.35C529.79 694.54 529.61 710.81 525.73 726.78L525.72 726.77Z" fill="#FBB040"/>
<path d="M439.64 657.28C450.17 657.71 457.85 662.57 461.26 674.18C464.76 666.54 467.73 660.04 470.76 653.39C453.25 641.28 439.17 642.42 424.64 656.59C417.6 663.45 412.23 671.42 408.6 680.55C407.82 682.5 407.21 684.52 406.47 686.66C408.66 687.64 410.36 688.38 412.05 689.16C420.84 693.2 430.18 696.37 438.31 701.47C457.87 713.75 466 724.05 453.89 750.92C456.43 751.52 460.42 750.19 462.94 746.22C476.55 724.79 468.85 707.19 457.45 695.94C449.73 688.32 440.59 682.13 432.05 675.35C428.2 672.3 424.24 669.39 420.19 666.32C425.54 659.44 432.12 656.99 439.64 657.29V657.28Z" fill="#FBB040"/>
<path d="M400.24 644.89C393.32 644.47 385.26 643.97 377.99 643.53C379.43 648.35 381.32 652.78 382 657.39C382.89 663.39 383.17 669.53 383.12 675.61C382.98 695.77 382.57 715.92 382.27 736.08C382.19 741.06 382.88 746.27 376.96 749.91C385.44 750.52 392.75 751.05 399.71 751.56C398.55 748.7 396.66 746.22 396.66 743.73C396.66 715.76 396.82 687.79 397.3 659.83C397.38 654.95 399.17 650.09 400.23 644.9L400.24 644.89Z" fill="#FBB040"/>
<path d="M292.82 634.95C283.89 633.7 275.69 632.56 267.34 631.39C268.92 634.97 270.99 637.94 271.48 641.15C272.57 648.38 273.4 655.74 273.41 663.04C273.44 684.59 273.12 706.15 272.65 727.7C272.58 730.73 270.92 733.73 269.93 736.96C276.12 737.9 283.44 739.02 290.41 740.08C289.34 737.56 287.52 735.27 287.51 732.97C287.34 706.1 287.26 679.23 287.59 652.37C287.66 646.51 287.02 640.03 292.82 634.94V634.95Z" fill="#FBB040"/>
<path d="M449.54 757.51C446.88 761.42 444.32 765.44 441.79 769.47C442.12 769.75 442.45 770.02 442.78 770.3C447.13 766.15 451.48 761.99 455.84 757.84C455.56 757.4 451.93 754 449.54 757.52V757.51Z" fill="#FBB040"/>
<path d="M244.4 628.1C234.51 626.79 224.75 624.57 214.89 623.05C209.75 622.26 205.3 620.73 202.2 614.57C201.19 627.73 200.29 639.43 199.39 651.14C202.7 646.4 205.45 641.65 208.99 637.58C213.48 632.41 219.54 630.49 226.36 631.72C227.54 631.93 228.58 632.97 229.69 633.63C228.87 634.63 228.23 635.97 227.18 636.55C224.66 637.94 221.95 638.97 219.23 640.18C224.82 649.21 223.29 659.76 223.73 669.67C224.46 686.17 223.49 702.75 222.93 719.28C222.83 722.07 221.16 724.82 220.16 727.75C226.38 728.94 233.56 730.32 240.16 731.58C239.26 729.04 237.68 726.63 237.65 724.2C237.3 697.81 237.13 671.43 237.09 645.04C237.09 641.3 238.05 637.55 238.66 633.06C252.51 639.34 256.56 651.92 262.44 663.47C260.66 650.26 258.95 637.56 257.09 623.78C253.92 629.94 248.78 628.7 244.42 628.12L244.4 628.1Z" fill="#FBB040"/>
</g>
<defs>
<clipPath id="clip0_431_252">
<rect width="774.23" height="608.3" fill="white" transform="translate(79 162)"/>
</clipPath>
</defs>
</svg>
